<svg width="100%" height="100%" id="svg" viewBox="0 0 1440 690" xmlns="http://www.w3.org/2000/svg" class="transition duration-300 ease-in-out delay-150"><path d="M 0,700 C 0,700 0,233 0,233 C 89.14615384615385,230.2948717948718 178.2923076923077,227.5897435897436 249,240 C 319.7076923076923,252.4102564102564 371.9769230769231,279.9358974358974 445,294 C 518.0230769230769,308.0641025641026 611.8000000000001,308.66666666666663 703,296 C 794.1999999999999,283.33333333333337 882.8230769230768,257.3974358974359 963,237 C 1043.1769230769232,216.6025641025641 1114.9076923076923,201.74358974358975 1193,202 C 1271.0923076923077,202.25641025641025 1355.5461538461539,217.62820512820514 1440,233 C 1440,233 1440,700 1440,700 Z" stroke="none" stroke-width="0" fill="#0693e3" fill-opacity="0.53" class="transition-all duration-300 ease-in-out delay-150 path-0" transform="rotate(-180 720 350)"></path><path d="M 0,700 C 0,700 0,466 0,466 C 82.98461538461538,452.5358974358974 165.96923076923076,439.07179487179485 238,460 C 310.03076923076924,480.92820512820515 371.10769230769233,536.248717948718 449,509 C 526.8923076923077,481.7512820512821 621.5999999999999,371.9333333333334 721,381 C 820.4000000000001,390.0666666666666 924.4923076923078,518.0179487179487 994,550 C 1063.5076923076922,581.9820512820513 1098.4307692307693,517.9948717948718 1167,488 C 1235.5692307692307,458.00512820512824 1337.7846153846153,462.0025641025641 1440,466 C 1440,466 1440,700 1440,700 Z" stroke="none" stroke-width="0" fill="#0693e3" fill-opacity="1" class="transition-all duration-300 ease-in-out delay-150 path-1" transform="rotate(-180 720 350)"></path></svg>
