<svg xmlns="http://www.w3.org/2000/svg" version="1.1" xmlns:xlink="http://www.w3.org/1999/xlink" xmlns:svgjs="http://svgjs.dev/svgjs" width="1000" height="1000" viewBox="0 0 1000 1000"><rect width="1000" height="1000" fill="#ffffff"></rect><g transform="matrix(0.7,0,0,0.7,149.57575757575756,433.7934412414416)"><svg viewBox="0 0 396 75" data-background-color="#ffffff" preserveAspectRatio="xMidYMid meet" height="189" width="1000" xmlns="http://www.w3.org/2000/svg" xmlns:xlink="http://www.w3.org/1999/xlink"><g id="tight-bounds" transform="matrix(1,0,0,1,0.2400000000000091,0.032062788298446776)"><svg viewBox="0 0 395.52 74.93587442340312" height="74.93587442340312" width="395.52"><g><svg viewBox="0 0 554.0103462581507 104.96371798257195" height="74.93587442340312" width="395.52"><g><rect width="6.310490940150197" height="70.3256910483232" x="135.6602455270313" y="17.31901346712438" fill="#000000" opacity="1" stroke-width="0" stroke="transparent" fill-opacity="1" class="rect-in-0" data-fill-palette-color="primary" rx="1%" id="in-0" data-palette-color="#23282d"></rect></g><g transform="matrix(1,0,0,1,158.4903462581506,17.493952997095327)"><svg viewBox="0 0 395.52000000000004 69.9758119883813" height="69.9758119883813" width="395.52000000000004"><g><svg viewBox="0 0 395.52000000000004 69.9758119883813" height="69.9758119883813" width="395.52000000000004"><g><svg viewBox="0 0 395.52000000000004 69.9758119883813" height="69.9758119883813" width="395.52000000000004"><g transform="matrix(1,0,0,1,0,0)"><svg width="395.52000000000004" viewBox="1.45 -32.7 189.34 33.50000000000001" height="69.9758119883813" data-palette-color="#23282d"><path d="M18.55 0.8Q14.8-11.1 10.75-22.6L10.75-22.6 10.35-22.6Q10.35-22.05 10.15-18.95 9.95-15.85 9.8-13.8L9.8-13.8Q9.2-5.4 9.2-4.75L9.2-4.75Q9.2-3.15 10.8-3.15L10.8-3.15 12.5-3.2 12.8-2.95 12.25 0.2Q8.05 0 6.4 0L6.4 0Q5.25 0 3.63 0.15 2 0.3 1.45 0.4L1.45 0.4 1.75-2.85Q3.2-3 3.85-3.78 4.5-4.55 4.8-6.45L4.8-6.45Q5.25-10.35 6.03-18.1 6.8-25.85 6.8-26.6L6.8-26.6Q6.8-27.95 6.03-28.45 5.25-28.95 3-29.15L3-29.15 2.75-29.45 3.2-32.35Q7.3-32.1 9.45-32.1L9.45-32.1Q10.55-32.1 14.75-32.3L14.75-32.3Q16.75-25.25 20.3-13.95L20.3-13.95 21.15-11.35 21.55-11.35Q21.85-12.35 22.35-13.88 22.85-15.4 23.4-17.15L23.4-17.15Q25.95-24.75 28.25-32.15L28.25-32.15Q29.3-32.15 29.95-32.1L29.95-32.1 32.6-32.05 34.15-32.1Q35.2-32.1 36.85-32.2 38.5-32.3 39.25-32.4L39.25-32.4 39.45-32.2 39.15-29.2Q37-29 36.23-28.45 35.45-27.9 35.45-26.55L35.45-26.55Q35.45-25 35.85-18.68 36.25-12.35 36.65-7.75L36.65-7.75Q36.95-5 37.43-4.08 37.9-3.15 39.1-3.15L39.1-3.15Q39.65-3.15 40.03-3.2 40.4-3.25 40.5-3.25L40.5-3.25 40.7-3 40.25 0.15Q39.5 0.15 38.9 0.1L38.9 0.1Q36.7 0 35.2 0L35.2 0Q33.75 0 31.38 0.15 29 0.3 28.1 0.4L28.1 0.4 28.45-2.85Q29.95-3.05 30.6-3.63 31.25-4.2 31.25-5.35L31.25-5.35Q31.25-5.55 30.85-11.55L30.85-11.55Q30.3-19.4 30.2-22.6L30.2-22.6 29.75-22.6Q25.55-10.9 21.95 0.35L21.95 0.35 18.55 0.8ZM43.95 0.45L44.25-2.75Q46.45-3.2 47.2-4.03 47.95-4.85 47.95-6.95L47.95-6.95 47.95-26.3Q47.95-27.85 47.6-28.38 47.25-28.9 46.15-28.9L46.15-28.9 44.4-28.85 44.15-29.25 44.55-32.15 51.45-32.1Q53.1-32.1 58.45-32.45L58.45-32.45 58.2-29.15Q56.3-28.9 55.67-28.38 55.05-27.85 54.95-26.45L54.95-26.45Q54.3-14.65 54.3-6.6L54.3-6.6Q54.3-4.55 54.7-3.85 55.1-3.15 56.25-3.15L56.25-3.15Q56.8-3.15 58.45-3.3L58.45-3.3 58.65-3 58.2 0.15 56.4 0.1 50.85 0Q48.55 0 43.95 0.45L43.95 0.45ZM78.09 0Q76.34 0 73.99 0.2 71.64 0.4 70.89 0.5L70.89 0.5 71.24-2.8Q73.39-3.2 74.14-4.03 74.89-4.85 74.89-6.8L74.89-6.8 74.94-26.4Q74.94-27.8 74.59-28.35 74.24-28.9 73.34-28.9L73.34-28.9Q72.84-28.9 72.34-28.85 71.84-28.8 71.64-28.8L71.64-28.8 71.29-29.2 71.74-32.2Q72.54-32.2 74.67-32.15 76.79-32.1 78.64-32.1L78.64-32.1Q80.54-32.1 82.89-32.2 85.24-32.3 86.19-32.35L86.19-32.35Q91.34-32.35 94.04-30.35 96.74-28.35 96.74-24.6L96.74-24.6Q96.74-22.1 95.32-20.18 93.89-18.25 91.34-16.95L91.34-16.95Q94.59-16.1 96.52-14.25 98.44-12.4 98.44-9.5L98.44-9.5Q98.44-6.55 96.82-4.28 95.19-2 92.27-0.75 89.34 0.5 85.49 0.5L85.49 0.5Q84.89 0.5 83.84 0.4 82.79 0.3 82.24 0.25L82.24 0.25Q81.59 0.2 80.24 0.1 78.89 0 78.09 0L78.09 0ZM81.54-18.4Q82.14-18.35 83.94-18.15 85.74-17.95 86.34-17.95L86.34-17.95Q86.34-17.85 87.32-18.48 88.29-19.1 89.07-20.3 89.84-21.5 89.84-23.35L89.84-23.35Q89.84-25.9 88.14-27.1 86.44-28.3 82.84-28.3L82.84-28.3Q82.34-28.3 82.17-28.1 81.99-27.9 81.94-27.35L81.94-27.35Q81.64-23.3 81.54-18.4L81.54-18.4ZM81.44-14.05L81.24-6.65Q81.24-5.05 82.34-4.38 83.44-3.7 85.99-3.7L85.99-3.7Q88.44-3.7 89.84-5.05 91.24-6.4 91.24-8.75L91.24-8.75Q91.24-10.8 89.92-12.18 88.59-13.55 86.09-14.1L86.09-14.1 81.44-14.05ZM102.49 0.5L102.89-2.85Q104.79-3.15 105.49-4.05 106.19-4.95 106.19-7.15L106.19-7.15 106.24-26.3Q106.24-27.85 105.89-28.38 105.54-28.9 104.44-28.9L104.44-28.9 102.89-28.85 102.64-29.25 103.04-32.15 109.74-32.1Q111.14-32.1 113.81-32.25 116.49-32.4 117.34-32.45L117.34-32.45 116.99-29Q115.29-28.8 114.52-28.43 113.74-28.05 113.52-27.38 113.29-26.7 113.19-25.25L113.19-25.25Q112.64-17.75 112.64-6.9L112.64-6.9Q112.64-5.55 112.89-4.93 113.14-4.3 113.79-4.08 114.44-3.85 115.79-3.85L115.79-3.85Q118.29-3.85 119.52-4.4 120.74-4.95 121.34-6.5 121.94-8.05 122.34-11.4L122.34-11.4 126.39-11.85 126.74-11.35Q126.59-10.4 126.17-7.08 125.74-3.75 125.44-0.1L125.44-0.1 124.94 0.4Q123.59 0.35 119.09 0.18 114.59 0 110.94 0L110.94 0Q108.19 0 105.69 0.2 103.19 0.4 102.49 0.5L102.49 0.5ZM142.59 0.6Q138.19 0.6 134.96-1.33 131.74-3.25 130.01-6.8 128.29-10.35 128.29-15.2L128.29-15.2Q128.29-20.4 130.34-24.35 132.39-28.3 136.11-30.5 139.84-32.7 144.69-32.7L144.69-32.7Q149.19-32.7 152.46-30.83 155.74-28.95 157.46-25.43 159.19-21.9 159.19-17.05L159.19-17.05Q159.19-11.85 157.11-7.83 155.04-3.8 151.26-1.6 147.49 0.6 142.59 0.6L142.59 0.6ZM143.89-3.65Q147.49-3.65 149.51-6.48 151.54-9.3 151.54-14.45L151.54-14.45Q151.54-21 149.39-24.48 147.24-27.95 143.29-27.95L143.29-27.95Q139.74-27.95 137.76-25.13 135.79-22.3 135.79-17.15L135.79-17.15Q135.79-10.6 137.91-7.13 140.04-3.65 143.89-3.65L143.89-3.65ZM176.94 0.6Q172.34 0.6 168.99-1.3 165.64-3.2 163.84-6.75 162.03-10.3 162.03-15.15L162.03-15.15Q162.03-20.55 164.19-24.5 166.34-28.45 170.34-30.58 174.34-32.7 179.79-32.7L179.79-32.7Q181.74-32.7 183.94-32.43 186.14-32.15 187.69-31.85 189.24-31.55 189.69-31.45L189.69-31.45 190.04-30.8Q189.94-30.5 189.69-29.28 189.44-28.05 189.16-26.03 188.89-24 188.74-21.7L188.74-21.7 183.94-21.35Q183.99-21.55 184.04-22.3 184.09-23.05 184.09-24.1L184.09-24.1Q184.09-26.2 182.81-27.08 181.54-27.95 178.59-27.95L178.59-27.95Q174.03-27.95 171.78-25.23 169.53-22.5 169.53-16.85L169.53-16.85Q169.53-10.7 171.81-7.33 174.09-3.95 178.14-3.95L178.14-3.95Q179.49-3.95 180.59-4.25 181.69-4.55 182.31-4.88 182.94-5.2 183.09-5.3L183.09-5.3 183.09-10.05Q183.09-11.5 182.64-11.98 182.19-12.45 180.84-12.45L180.84-12.45 178.24-12.45 177.99-12.85 178.49-16.4Q179.69-16.4 180.54-16.35L180.54-16.35Q183.34-16.25 185.44-16.25L185.44-16.25Q186.99-16.25 188.49-16.35 189.99-16.45 190.44-16.5L190.44-16.5 190.79-14.6Q189.94-14.05 189.51-13.23 189.09-12.4 188.94-10.88 188.79-9.35 188.79-6.4L188.79-6.4Q188.79-3.4 189.14-2.05L189.14-2.05 188.69-1.45Q188.69-1.4 187.01-0.85 185.34-0.3 182.71 0.15 180.09 0.6 176.94 0.6L176.94 0.6Z" opacity="1" transform="matrix(1,0,0,1,0,0)" fill="#000000" class="undefined-text-0" data-fill-palette-color="primary" id="text-0"></path></svg></g></svg></g></svg></g></svg></g><g><svg viewBox="0 0 119.1406357360622 104.96371798257195" height="104.96371798257195" width="119.1406357360622"><g><svg xmlns="http://www.w3.org/2000/svg" xmlns:xlink="http://www.w3.org/1999/xlink" version="1.1" x="0" y="0" viewBox="6.3 11.5 87.4 77" style="enable-background:new 0 0 100 100;" xml:space="preserve" height="104.96371798257195" width="119.1406357360622" class="icon-icon-0" data-fill-palette-color="accent" id="icon-0"><path d="M72.3 12.3L72.3 12.3 72.3 12.3l-0.4-0.8H28.2L6.3 50l21.8 38.5h43.7L93.7 50 72.3 12.3zM33.3 25.3L9.9 47.7l18.6-32.8L33.3 25.3zM70.7 14.8l6.4 35.7L36.9 25.8 70.7 14.8zM35.5 27.3l41 25.2-41 23.3V27.3zM77 54.5l-7.2 30.8-32.6-8.1L77 54.5zM33.5 75L9.9 50.5l23.6-22.7V75zM33.2 77.6l-4.6 7.7L11.5 55.1 33.2 77.6zM35 78.6l31.4 7.9H30.2L35 78.6zM79.3 53.3l11.6-2.5L72.1 84 79.3 53.3zM90.7 48.9l-11.4 2.5-5.9-33.1L90.7 48.9zM35 24.3l-5-10.8h38.2L35 24.3z" fill="#000000" data-fill-palette-color="accent"></path></svg></g></svg></g></svg></g><defs></defs></svg><rect width="395.52" height="74.93587442340312" fill="none" stroke="none" visibility="hidden"></rect></g></svg></g></svg>